<?xml version="1.0" standalone="no"?>
<!DOCTYPE svg PUBLIC "-//W3C//DTD SVG 20010904//EN"
 "http://www.w3.org/TR/2001/REC-SVG-20010904/DTD/svg10.dtd">
<svg version="1.0" xmlns="http://www.w3.org/2000/svg"
 width="360.000000pt" height="360.000000pt" viewBox="0 0 360.000000 360.000000"
 preserveAspectRatio="xMidYMid meet">
<metadata>
Created by potrace 1.14, written by Peter Selinger 2001-2017
</metadata>
<g transform="translate(0.000000,360.000000) scale(0.100000,-0.100000)"
fill="#000000" stroke="none">
<path d="M1000 3119 c-156 -17 -349 -115 -440 -223 -14 -16 -34 -39 -46 -50
-62 -61 -177 -294 -198 -401 -3 -11 -9 -41 -15 -67 -34 -150 -35 -420 -1 -585
5 -26 12 -59 14 -73 6 -34 50 -165 74 -220 40 -92 98 -206 112 -220 3 -3 11
-16 18 -30 31 -61 154 -213 247 -305 115 -115 135 -132 230 -201 118 -86 421
-254 457 -254 8 0 19 -5 25 -11 6 -6 17 -12 24 -13 8 -2 21 -6 29 -9 49 -20
171 -48 230 -53 19 -1 37 -3 40 -5 15 -5 57 -3 67 4 6 4 14 3 17 -2 4 -6 15
-7 29 -2 12 5 27 9 32 9 35 2 103 16 148 31 29 10 57 19 62 21 6 1 21 6 35 11
44 16 50 18 55 18 5 0 39 17 85 42 8 4 38 19 65 32 28 13 93 49 145 81 52 31
98 56 103 56 4 0 5 5 2 10 -3 6 -1 10 6 10 32 0 227 170 334 292 119 134 234
320 293 473 13 33 28 69 33 80 10 24 47 169 54 216 19 128 23 179 20 301 -1
75 -5 140 -8 145 -3 4 -8 31 -11 58 -3 28 -10 65 -15 83 -5 17 -7 32 -4 32 3
0 0 7 -7 15 -7 8 -10 15 -7 15 8 0 -32 110 -49 138 -8 12 -12 22 -9 22 8 0
-65 136 -86 158 -10 12 -19 25 -19 31 0 16 -134 147 -190 186 -189 129 -424
162 -699 100 -39 -9 -133 -50 -191 -84 -30 -17 -63 -34 -72 -37 -10 -4 -18
-11 -18 -17 0 -6 -3 -8 -6 -4 -3 3 -26 -5 -52 -19 -37 -20 -56 -23 -101 -20
-64 5 -121 23 -121 39 0 6 -3 8 -6 4 -3 -3 -36 13 -72 36 -79 50 -201 110
-247 123 -143 37 -265 48 -395 33z"/>
</g>
</svg>
