<svg width="17" height="17" viewBox="0 0 17 17" fill="none" xmlns="http://www.w3.org/2000/svg">
    <path d="M11.8312 10.9998C11.7152 9.88456 11.2475 8.84444 10.5048 8.04998C9.76205 7.25553 8.78835 6.75389 7.74334 6.62731C6.69832 6.50073 5.644 6.75671 4.75324 7.3533C3.86247 7.94989 3.18812 8.85167 2.84074 9.91081C2.04473 9.98032 1.30478 10.3757 0.775773 11.014C0.246769 11.6524 -0.0302768 12.4844 0.00262877 13.3358C0.0355344 14.1872 0.37584 14.992 0.952312 15.5818C1.52878 16.1715 2.29673 16.5005 3.0954 16.4999H11.8591C12.5427 16.4999 13.1983 16.2102 13.6817 15.6944C14.1651 15.1787 14.4366 14.4792 14.4366 13.7499C14.4366 13.0205 14.1651 12.321 13.6817 11.8053C13.1983 11.2896 12.5427 10.9998 11.8591 10.9998H11.8312Z" fill="#E1E2E4" />
    <path d="M11.6384 0.855595C11.6977 0.760983 11.728 0.64909 11.7251 0.535338C11.7223 0.421586 11.6864 0.311576 11.6225 0.22047C11.5586 0.129363 11.4698 0.0616467 11.3683 0.0266529C11.2668 -0.00834083 11.1577 -0.00888876 11.0559 0.0250846C9.98837 0.381772 9.07359 1.12998 8.47351 2.13723C7.87344 3.14449 7.62679 4.3458 7.77725 5.52846C8.14603 5.56671 8.51037 5.64372 8.86497 5.75836C8.70577 5.03444 8.74065 4.27734 8.96563 3.57357C9.19061 2.8698 9.59662 2.24775 10.1373 1.77851C9.95869 2.51312 9.93753 3.28121 10.0753 4.02575C10.2132 4.77028 10.5064 5.47213 10.9333 6.07916C11.3603 6.68619 11.9099 7.18281 12.5413 7.53214C13.1728 7.88147 13.87 8.07453 14.581 8.09699C13.9053 8.59802 13.092 8.84352 12.2704 8.7944C12.4375 9.1431 12.5746 9.51161 12.6767 9.89441C13.4211 9.86059 14.1475 9.63973 14.7967 9.24978C15.446 8.85984 15.9998 8.31184 16.4131 7.65038C16.4723 7.55577 16.5026 7.44388 16.4998 7.33013C16.4969 7.21637 16.4611 7.10636 16.3972 7.01526C16.3333 6.92415 16.2445 6.85643 16.143 6.82144C16.0415 6.78645 15.9323 6.7859 15.8306 6.81987C15.0993 7.06478 14.3148 7.06163 13.5852 6.81087C12.8557 6.5601 12.217 6.07407 11.7572 5.41977C11.2974 4.76547 11.0392 3.97512 11.0181 3.15766C10.997 2.3402 11.2141 1.53589 11.6395 0.855595H11.6384Z" fill="#E1E2E4" />
</svg>
