<svg width="20" height="20" viewBox="0 0 20 20" fill="none" xmlns="http://www.w3.org/2000/svg">
    <path d="M5.10545 3.81986L3.51 2.22603L2.26023 3.48151L3.84682 5.07534L5.10545 3.81986ZM2.65909 8.85959H0V10.6404H2.65909V8.85959ZM10.6364 0H8.86364V2.62671H10.6364V0V0ZM17.2398 3.48151L15.99 2.22603L14.4034 3.81986L15.6532 5.07534L17.2398 3.48151ZM14.3945 15.6801L15.9811 17.2829L17.2309 16.0274L15.6355 14.4336L14.3945 15.6801ZM16.8409 8.85959V10.6404H19.5V8.85959H16.8409ZM9.75 4.40753C6.81614 4.40753 4.43182 6.80274 4.43182 9.75C4.43182 12.6973 6.81614 15.0925 9.75 15.0925C12.6839 15.0925 15.0682 12.6973 15.0682 9.75C15.0682 6.80274 12.6839 4.40753 9.75 4.40753ZM8.86364 19.5H10.6364V16.8733H8.86364V19.5ZM2.26023 16.0185L3.51 17.274L5.09659 15.6712L3.84682 14.4158L2.26023 16.0185Z" fill="#FFC700" />
</svg>
